<svg xmlns="http://www.w3.org/2000/svg"  viewBox="0 0 64 64" width="52px" height="52px"><linearGradient id="URX4T3FXy5M~8t_zKOrAba" x1="31.999" x2="31.999" y1="8.915" y2="51.56" gradientUnits="userSpaceOnUse"><stop offset="0" stop-color="#1a6dff"/><stop offset="1" stop-color="#c822ff"/></linearGradient><path fill="url(#URX4T3FXy5M~8t_zKOrAba)" d="M52.6,18.6c-0.8-2.9-2.4-5.2-4.8-6.8c-3-2.1-6.4-2.8-9.4-3.2c-4.1-0.6-7.8-0.7-11.4-0.3	c-3.3,0.4-5.8,1.1-8.1,2.1c-4.5,2.1-7.1,5.4-8,9.9c-0.4,2.2-0.7,4.2-0.8,6c-0.4,4.4,0,8.2,1,11.8c1,3.5,2.7,6,5.3,7.6	c0.7,0.4,1.5,0.7,2.3,1c0.5,0.2,0.9,0.3,1.3,0.5c0.4,0.2,0.4,0.2,0.4,0.5c0,2.5,0,7.3,0,7.3c0,0.5,0.5,1,1,1h0.4	c0.3,0,0.5-0.1,0.7-0.3c0.2-0.2,4.8-4.6,6.5-6.4l0.2-0.3c0.3-0.3,0.3-0.3,0.6-0.3c2.3,0,4.5-0.1,6.7-0.3c2.7-0.1,5.9-0.4,8.9-1.7	c2.7-1.1,4.7-2.9,5.9-5.4c1.2-2.5,2-5.3,2.3-8.4C54.2,27.6,53.8,22.9,52.6,18.6z M51.7,32.9c-0.3,2.9-0.9,5.4-2.1,7.7	c-1,2-2.6,3.4-4.9,4.4c-2.7,1.1-5.6,1.4-8.2,1.5c-2.2,0.1-4.4,0.2-6.7,0.2c-1.2,0-1.6,0.5-2.1,1l-0.2,0.2c-1.1,1.2-3.6,3.6-5.1,5.1	c0-1.6,0-3.9,0-5.3c0-1.5-0.9-2-1.5-2.4c-0.4-0.2-0.9-0.4-1.5-0.6c-0.7-0.3-1.5-0.5-1.9-0.8c-2.2-1.4-3.6-3.5-4.5-6.4	c-1-3.3-1.3-7-0.9-11.1c0.1-1.8,0.4-3.7,0.8-5.9c0.7-3.9,2.9-6.6,6.8-8.4c2.1-1,4.4-1.6,7.5-1.9c1.4-0.2,2.8-0.3,4.3-0.3	c2.1,0,4.2,0.2,6.5,0.5c2.9,0.4,5.9,1.1,8.5,2.9c2,1.4,3.3,3.3,4,5.7C51.8,23.2,52.2,27.7,51.7,32.9z"/><linearGradient id="URX4T3FXy5M~8t_zKOrAbb" x1="30.956" x2="30.956" y1="49.468" y2="27.988" gradientTransform="matrix(1 0 0 -1 0 66)" gradientUnits="userSpaceOnUse"><stop offset="0" stop-color="#6dc7ff"/><stop offset="1" stop-color="#e6abff"/></linearGradient><path fill="url(#URX4T3FXy5M~8t_zKOrAbb)" d="M41.7,35.9c-1-0.7-1.9-1.4-2.9-2.1c-1.5-1.1-3.1-1.2-4.2,0.6c-0.1,0.1-0.1,0.2-0.2,0.3c-0.6,0.6-1.3,0.8-2,0.4	c-2.8-1.2-5-3-6.3-5.8c-0.8-1.6-0.6-2.5,0.9-3.5c0.1-0.1,0.3-0.2,0.4-0.3c0.6-0.6,0.8-1.3,0.4-2c-0.8-1.8-2-3.4-3.4-4.7	c-0.5-0.5-1.1-0.7-1.8-0.6c-1.8,0.4-3.6,1.7-3.6,4.1c0.1,0.3,0,0.7,0.2,1c0.6,1.5,1.1,3,1.8,4.3c3.6,6.7,9,11.3,15.9,14.3	c0.8,0.4,1.7,0.4,2.5,0.1c1.1-0.5,2.1-1.2,2.8-2.3C43.1,38,43.2,37,41.7,35.9z"/><linearGradient id="URX4T3FXy5M~8t_zKOrAbc" x1="37.071" x2="37.071" y1="49.468" y2="27.988" gradientTransform="matrix(1 0 0 -1 0 66)" gradientUnits="userSpaceOnUse"><stop offset="0" stop-color="#6dc7ff"/><stop offset="1" stop-color="#e6abff"/></linearGradient><path fill="url(#URX4T3FXy5M~8t_zKOrAbc)" d="M33.5,15c-1.3,0-2.5,0.2-3.7,0.6c-0.5,0.2-0.8,0.7-0.6,1.3s0.7,0.8,1.3,0.6c1-0.3,2-0.5,3-0.5	c5.2,0,9.5,4.3,9.5,9.5c0,1.1-0.2,2.2-0.5,3.2c-0.2,0.5,0.1,1.1,0.6,1.3c0.1,0,0.2,0.1,0.3,0.1c0.4,0,0.8-0.3,0.9-0.7	c0.4-1.2,0.7-2.5,0.7-3.8C45,20.2,39.8,15,33.5,15z"/><linearGradient id="URX4T3FXy5M~8t_zKOrAbd" x1="35.711" x2="35.711" y1="49.468" y2="27.988" gradientTransform="matrix(1 0 0 -1 0 66)" gradientUnits="userSpaceOnUse"><stop offset="0" stop-color="#6dc7ff"/><stop offset="1" stop-color="#e6abff"/></linearGradient><path fill="url(#URX4T3FXy5M~8t_zKOrAbd)" d="M39.4,29.5c0.1,0,0.2,0.1,0.3,0.1c0.4,0,0.8-0.3,0.9-0.7c0.3-0.8,0.4-1.6,0.4-2.4c0-4.1-3.4-7.5-7.5-7.5	c-0.8,0-1.6,0.1-2.4,0.4c-0.5,0.2-0.8,0.7-0.6,1.3s0.7,0.8,1.3,0.6c0.6-0.2,1.2-0.3,1.8-0.3c3,0,5.5,2.5,5.5,5.5	c0,0.6-0.1,1.2-0.3,1.7C38.5,28.8,38.8,29.3,39.4,29.5z"/><linearGradient id="URX4T3FXy5M~8t_zKOrAbe" x1="34.35" x2="34.35" y1="49.468" y2="27.988" gradientTransform="matrix(1 0 0 -1 0 66)" gradientUnits="userSpaceOnUse"><stop offset="0" stop-color="#6dc7ff"/><stop offset="1" stop-color="#e6abff"/></linearGradient><path fill="url(#URX4T3FXy5M~8t_zKOrAbe)" d="M35.6,28.2c0.1,0,0.2,0.1,0.3,0.1c0.4,0,0.8-0.3,0.9-0.7c0.1-0.4,0.2-0.7,0.2-1.1c0-1.9-1.6-3.5-3.5-3.5	c-0.4,0-0.8,0.1-1.1,0.2c-0.5,0.2-0.8,0.7-0.6,1.3c0.2,0.5,0.7,0.8,1.3,0.6c0.2-0.1,0.3-0.1,0.5-0.1c0.8,0,1.5,0.7,1.5,1.5	c0,0.2,0,0.3-0.1,0.5C34.8,27.5,35,28.1,35.6,28.2z"/></svg>